<svg preserveAspectRatio="none" overflow="visible" style="display: block;" width="10" height="10" viewBox="0 0 10 10" fill="none" xmlns="http://www.w3.org/2000/svg">
<g id="Group">
<g id="Vector">
</g>
<path id="Vector_2" d="M5.41667 1.25C5.62691 1.24993 5.8294 1.32934 5.98356 1.47229C6.13772 1.61524 6.23215 1.81119 6.24792 2.02083L6.25 2.08333V8.75H3.75V2.08333C3.74993 1.87309 3.82934 1.6706 3.97229 1.51644C4.11524 1.36228 4.31119 1.26785 4.52083 1.25208L4.58333 1.25H5.41667ZM8.33333 3.33333C8.55435 3.33333 8.76631 3.42113 8.92259 3.57741C9.07887 3.73369 9.16667 3.94565 9.16667 4.16667V7.91667C9.16667 8.13768 9.07887 8.34964 8.92259 8.50592C8.76631 8.6622 8.55435 8.75 8.33333 8.75H7.08333V3.33333H8.33333ZM2.91667 4.58333V8.75H1.66667C1.44565 8.75 1.23369 8.6622 1.07741 8.50592C0.921131 8.34964 0.833333 8.13768 0.833333 7.91667V5.41667C0.833333 5.19565 0.921131 4.98369 1.07741 4.82741C1.23369 4.67113 1.44565 4.58333 1.66667 4.58333H2.91667Z" fill="white"/>
</g>
</svg>
