<svg preserveAspectRatio="none" overflow="visible" style="display: block;" width="24" height="24" viewBox="0 0 24 24" fill="none" xmlns="http://www.w3.org/2000/svg">
<g id="Frame 2147236491">
<rect width="24" height="24" rx="6" fill="#606165"/>
<path id="Vector" d="M11.0412 11.8229L4.72769 8.90348C4.18973 8.64825 4.18973 8.25486 4.72769 8.0233L11.0412 5.10451C11.5791 4.84928 12.4446 4.84928 12.9589 5.10451L19.2724 8.0233C19.8103 8.27788 19.8103 8.67192 19.2724 8.90348L12.9589 11.8223C12.4209 12.0538 11.5555 12.0538 11.0412 11.8223V11.8229ZM11.0412 15.3206L4.72769 12.4018C4.18973 12.1466 4.18973 11.7532 4.72769 11.5216L6.87888 10.525L11.0412 12.4479C11.5791 12.7024 12.4446 12.7024 12.9589 12.4479L17.1212 10.525L19.2724 11.5216C19.8103 11.7762 19.8103 12.1702 19.2724 12.4018L12.9589 15.3206C12.4209 15.5752 11.5555 15.5752 11.0412 15.3206ZM11.0412 15.3206L4.72769 12.4018C4.18973 12.1466 4.18973 11.7532 4.72769 11.5216L6.87888 10.525L11.0412 12.4479C11.5791 12.7024 12.4446 12.7024 12.9589 12.4479L17.1212 10.525L19.2724 11.5216C19.8103 11.7762 19.8103 12.1702 19.2724 12.4018L12.9589 15.3206C12.4209 15.5752 11.5555 15.5752 11.0412 15.3206ZM11.0412 18.9111L4.72769 15.9923C4.18973 15.7377 4.18973 15.3437 4.72769 15.1121L6.92558 14.0931L11.0182 15.9929C11.5555 16.2475 12.4209 16.2475 12.9352 15.9929L17.0278 14.0931L19.2257 15.1121C19.7637 15.3674 19.7637 15.7607 19.2257 15.9923L12.9122 18.9111C12.4209 19.1427 11.5561 19.1427 11.0412 18.9111Z" fill="white"/>
</g>
</svg>
